<svg width="36" height="136" viewBox="0 0 36 136" fill="none" xmlns="http://www.w3.org/2000/svg">
<path d="M3.5 2.18557e-08C3.5 -0.276142 3.27614 -0.5 3 -0.5C2.72386 -0.5 2.5 -0.276142 2.5 -2.18557e-08L3.5 2.18557e-08ZM3 66.3333C1.52724 66.3333 0.33333 67.5272 0.33333 69C0.33333 70.4728 1.52724 71.6667 3 71.6667C4.47276 71.6667 5.66666 70.4728 5.66666 69C5.66666 67.5272 4.47276 66.3333 3 66.3333ZM2.5 -2.18557e-08L2.5 1.01471L3.5 1.01471L3.5 2.18557e-08L2.5 -2.18557e-08ZM2.5 3.04412L2.5 5.07353L3.5 5.07353L3.5 3.04412L2.5 3.04412ZM2.5 7.10294L2.5 9.13235L3.5 9.13235L3.5 7.10294L2.5 7.10294ZM2.5 11.1618L2.5 13.1912L3.5 13.1912L3.5 11.1618L2.5 11.1618ZM2.5 15.2206L2.5 17.25L3.5 17.25L3.5 15.2206L2.5 15.2206ZM2.5 19.2794L2.5 21.3088L3.5 21.3088L3.5 19.2794L2.5 19.2794ZM2.5 23.3382L2.5 25.3676L3.5 25.3676L3.5 23.3382L2.5 23.3382ZM2.5 27.3971L2.5 29.4265L3.5 29.4265L3.5 27.3971L2.5 27.3971ZM2.5 31.4559L2.5 33.4853L3.5 33.4853L3.5 31.4559L2.5 31.4559ZM2.5 35.5147L2.5 37.5441L3.5 37.5441L3.5 35.5147L2.5 35.5147ZM2.5 39.5735L2.5 41.6029L3.5 41.6029L3.5 39.5735L2.5 39.5735ZM2.5 43.6323L2.5 45.6618L3.5 45.6618L3.5 43.6323L2.5 43.6323ZM2.5 47.6912L2.5 49.7206L3.5 49.7206L3.5 47.6912L2.5 47.6912ZM2.5 51.75L2.5 53.7794L3.5 53.7794L3.5 51.75L2.5 51.75ZM2.5 55.8088L2.5 57.8382L3.5 57.8382L3.5 55.8088L2.5 55.8088ZM2.5 59.8676L2.5 61.897L3.5 61.897L3.5 59.8676L2.5 59.8676ZM2.5 63.9265L2.5 65.9559L3.5 65.9559L3.5 63.9265L2.5 63.9265ZM2.5 67.9853L2.5 69L3.5 69L3.5 67.9853L2.5 67.9853ZM3.5 2.18557e-08C3.5 -0.276142 3.27614 -0.5 3 -0.5C2.72386 -0.5 2.5 -0.276142 2.5 -2.18557e-08L3.5 2.18557e-08ZM3 66.3333C1.52724 66.3333 0.33333 67.5272 0.33333 69C0.33333 70.4728 1.52724 71.6667 3 71.6667C4.47276 71.6667 5.66666 70.4728 5.66666 69C5.66666 67.5272 4.47276 66.3333 3 66.3333ZM2.5 -2.18557e-08L2.5 1.01471L3.5 1.01471L3.5 2.18557e-08L2.5 -2.18557e-08ZM2.5 3.04412L2.5 5.07353L3.5 5.07353L3.5 3.04412L2.5 3.04412ZM2.5 7.10294L2.5 9.13235L3.5 9.13235L3.5 7.10294L2.5 7.10294ZM2.5 11.1618L2.5 13.1912L3.5 13.1912L3.5 11.1618L2.5 11.1618ZM2.5 15.2206L2.5 17.25L3.5 17.25L3.5 15.2206L2.5 15.2206ZM2.5 19.2794L2.5 21.3088L3.5 21.3088L3.5 19.2794L2.5 19.2794ZM2.5 23.3382L2.5 25.3676L3.5 25.3676L3.5 23.3382L2.5 23.3382ZM2.5 27.3971L2.5 29.4265L3.5 29.4265L3.5 27.3971L2.5 27.3971ZM2.5 31.4559L2.5 33.4853L3.5 33.4853L3.5 31.4559L2.5 31.4559ZM2.5 35.5147L2.5 37.5441L3.5 37.5441L3.5 35.5147L2.5 35.5147ZM2.5 39.5735L2.5 41.6029L3.5 41.6029L3.5 39.5735L2.5 39.5735ZM2.5 43.6323L2.5 45.6618L3.5 45.6618L3.5 43.6323L2.5 43.6323ZM2.5 47.6912L2.5 49.7206L3.5 49.7206L3.5 47.6912L2.5 47.6912ZM2.5 51.75L2.5 53.7794L3.5 53.7794L3.5 51.75L2.5 51.75ZM2.5 55.8088L2.5 57.8382L3.5 57.8382L3.5 55.8088L2.5 55.8088ZM2.5 59.8676L2.5 61.897L3.5 61.897L3.5 59.8676L2.5 59.8676ZM2.5 63.9265L2.5 65.9559L3.5 65.9559L3.5 63.9265L2.5 63.9265ZM2.5 67.9853L2.5 69L3.5 69L3.5 67.9853L2.5 67.9853Z" fill="#CEF4D4"/>
<path d="M13.5 2.18557e-08C13.5 -0.276142 13.2761 -0.5 13 -0.5C12.7239 -0.5 12.5 -0.276142 12.5 -2.18557e-08L13.5 2.18557e-08ZM13 130.333C11.5272 130.333 10.3333 131.527 10.3333 133C10.3333 134.473 11.5272 135.667 13 135.667C14.4728 135.667 15.6667 134.473 15.6667 133C15.6667 131.527 14.4728 130.333 13 130.333ZM12.5 -2.18557e-08L12.5 1.00758L13.5 1.00758L13.5 2.18557e-08L12.5 -2.18557e-08ZM12.5 3.02273L12.5 5.03788L13.5 5.03788L13.5 3.02273L12.5 3.02273ZM12.5 7.05303L12.5 9.06818L13.5 9.06818L13.5 7.05303L12.5 7.05303ZM12.5 11.0833L12.5 13.0985L13.5 13.0985L13.5 11.0833L12.5 11.0833ZM12.5 15.1136L12.5 17.1288L13.5 17.1288L13.5 15.1136L12.5 15.1136ZM12.5 19.1439L12.5 21.1591L13.5 21.1591L13.5 19.1439L12.5 19.1439ZM12.5 23.1742L12.5 25.1894L13.5 25.1894L13.5 23.1742L12.5 23.1742ZM12.5 27.2045L12.5 29.2197L13.5 29.2197L13.5 27.2045L12.5 27.2045ZM12.5 31.2349L12.5 33.25L13.5 33.25L13.5 31.2349L12.5 31.2349ZM12.5 35.2652L12.5 37.2803L13.5 37.2803L13.5 35.2652L12.5 35.2652ZM12.5 39.2955L12.5 41.3106L13.5 41.3106L13.5 39.2955L12.5 39.2955ZM12.5 43.3258L12.5 45.3409L13.5 45.3409L13.5 43.3258L12.5 43.3258ZM12.5 47.3561L12.5 49.3712L13.5 49.3712L13.5 47.3561L12.5 47.3561ZM12.5 51.3864L12.5 53.4015L13.5 53.4015L13.5 51.3864L12.5 51.3864ZM12.5 55.4167L12.5 57.4318L13.5 57.4318L13.5 55.4167L12.5 55.4167ZM12.5 59.447L12.5 61.4621L13.5 61.4621L13.5 59.447L12.5 59.447ZM12.5 63.4773L12.5 65.4924L13.5 65.4924L13.5 63.4773L12.5 63.4773ZM12.5 67.5076L12.5 69.5227L13.5 69.5227L13.5 67.5076L12.5 67.5076ZM12.5 71.5379L12.5 73.553L13.5 73.553L13.5 71.5379L12.5 71.5379ZM12.5 75.5682L12.5 77.5833L13.5 77.5833L13.5 75.5682L12.5 75.5682ZM12.5 79.5985L12.5 81.6136L13.5 81.6136L13.5 79.5985L12.5 79.5985ZM12.5 83.6288L12.5 85.644L13.5 85.644L13.5 83.6288L12.5 83.6288ZM12.5 87.6591L12.5 89.6743L13.5 89.6743L13.5 87.6591L12.5 87.6591ZM12.5 91.6894L12.5 93.7046L13.5 93.7046L13.5 91.6894L12.5 91.6894ZM12.5 95.7197L12.5 97.7349L13.5 97.7349L13.5 95.7197L12.5 95.7197ZM12.5 99.75L12.5 101.765L13.5 101.765L13.5 99.75L12.5 99.75ZM12.5 103.78L12.5 105.795L13.5 105.795L13.5 103.78L12.5 103.78ZM12.5 107.811L12.5 109.826L13.5 109.826L13.5 107.811L12.5 107.811ZM12.5 111.841L12.5 113.856L13.5 113.856L13.5 111.841L12.5 111.841ZM12.5 115.871L12.5 117.886L13.5 117.886L13.5 115.871L12.5 115.871ZM12.5 119.902L12.5 121.917L13.5 121.917L13.5 119.902L12.5 119.902ZM12.5 123.932L12.5 125.947L13.5 125.947L13.5 123.932L12.5 123.932ZM12.5 127.962L12.5 129.977L13.5 129.977L13.5 127.962L12.5 127.962ZM12.5 131.992L12.5 133L13.5 133L13.5 131.992L12.5 131.992ZM13.5 2.18557e-08C13.5 -0.276142 13.2761 -0.5 13 -0.5C12.7239 -0.5 12.5 -0.276142 12.5 -2.18557e-08L13.5 2.18557e-08ZM13 130.333C11.5272 130.333 10.3333 131.527 10.3333 133C10.3333 134.473 11.5272 135.667 13 135.667C14.4728 135.667 15.6667 134.473 15.6667 133C15.6667 131.527 14.4728 130.333 13 130.333ZM12.5 -2.18557e-08L12.5 1.00758L13.5 1.00758L13.5 2.18557e-08L12.5 -2.18557e-08ZM12.5 3.02273L12.5 5.03788L13.5 5.03788L13.5 3.02273L12.5 3.02273ZM12.5 7.05303L12.5 9.06818L13.5 9.06818L13.5 7.05303L12.5 7.05303ZM12.5 11.0833L12.5 13.0985L13.5 13.0985L13.5 11.0833L12.5 11.0833ZM12.5 15.1136L12.5 17.1288L13.5 17.1288L13.5 15.1136L12.5 15.1136ZM12.5 19.1439L12.5 21.1591L13.5 21.1591L13.5 19.1439L12.5 19.1439ZM12.5 23.1742L12.5 25.1894L13.5 25.1894L13.5 23.1742L12.5 23.1742ZM12.5 27.2045L12.5 29.2197L13.5 29.2197L13.5 27.2045L12.5 27.2045ZM12.5 31.2349L12.5 33.25L13.5 33.25L13.5 31.2349L12.5 31.2349ZM12.5 35.2652L12.5 37.2803L13.5 37.2803L13.5 35.2652L12.5 35.2652ZM12.5 39.2955L12.5 41.3106L13.5 41.3106L13.5 39.2955L12.5 39.2955ZM12.5 43.3258L12.5 45.3409L13.5 45.3409L13.5 43.3258L12.5 43.3258ZM12.5 47.3561L12.5 49.3712L13.5 49.3712L13.5 47.3561L12.5 47.3561ZM12.5 51.3864L12.5 53.4015L13.5 53.4015L13.5 51.3864L12.5 51.3864ZM12.5 55.4167L12.5 57.4318L13.5 57.4318L13.5 55.4167L12.5 55.4167ZM12.5 59.447L12.5 61.4621L13.5 61.4621L13.5 59.447L12.5 59.447ZM12.5 63.4773L12.5 65.4924L13.5 65.4924L13.5 63.4773L12.5 63.4773ZM12.5 67.5076L12.5 69.5227L13.5 69.5227L13.5 67.5076L12.5 67.5076ZM12.5 71.5379L12.5 73.553L13.5 73.553L13.5 71.5379L12.5 71.5379ZM12.5 75.5682L12.5 77.5833L13.5 77.5833L13.5 75.5682L12.5 75.5682ZM12.5 79.5985L12.5 81.6136L13.5 81.6136L13.5 79.5985L12.5 79.5985ZM12.5 83.6288L12.5 85.644L13.5 85.644L13.5 83.6288L12.5 83.6288ZM12.5 87.6591L12.5 89.6743L13.5 89.6743L13.5 87.6591L12.5 87.6591ZM12.5 91.6894L12.5 93.7046L13.5 93.7046L13.5 91.6894L12.5 91.6894ZM12.5 95.7197L12.5 97.7349L13.5 97.7349L13.5 95.7197L12.5 95.7197ZM12.5 99.75L12.5 101.765L13.5 101.765L13.5 99.75L12.5 99.75ZM12.5 103.78L12.5 105.795L13.5 105.795L13.5 103.78L12.5 103.78ZM12.5 107.811L12.5 109.826L13.5 109.826L13.5 107.811L12.5 107.811ZM12.5 111.841L12.5 113.856L13.5 113.856L13.5 111.841L12.5 111.841ZM12.5 115.871L12.5 117.886L13.5 117.886L13.5 115.871L12.5 115.871ZM12.5 119.902L12.5 121.917L13.5 121.917L13.5 119.902L12.5 119.902ZM12.5 123.932L12.5 125.947L13.5 125.947L13.5 123.932L12.5 123.932ZM12.5 127.962L12.5 129.977L13.5 129.977L13.5 127.962L12.5 127.962ZM12.5 131.992L12.5 133L13.5 133L13.5 131.992L12.5 131.992Z" fill="#CEF4D4"/>
<path d="M23.5 2.18557e-08C23.5 -0.276142 23.2761 -0.5 23 -0.5C22.7239 -0.5 22.5 -0.276142 22.5 -2.18557e-08L23.5 2.18557e-08ZM23 106.333C21.5272 106.333 20.3333 107.527 20.3333 109C20.3333 110.473 21.5272 111.667 23 111.667C24.4728 111.667 25.6667 110.473 25.6667 109C25.6667 107.527 24.4728 106.333 23 106.333ZM22.5 -2.18557e-08L22.5 1.00926L23.5 1.00926L23.5 2.18557e-08L22.5 -2.18557e-08ZM22.5 3.02778L22.5 5.0463L23.5 5.0463L23.5 3.02778L22.5 3.02778ZM22.5 7.06481L22.5 9.08333L23.5 9.08333L23.5 7.06481L22.5 7.06481ZM22.5 11.1019L22.5 13.1204L23.5 13.1204L23.5 11.1019L22.5 11.1019ZM22.5 15.1389L22.5 17.1574L23.5 17.1574L23.5 15.1389L22.5 15.1389ZM22.5 19.1759L22.5 21.1944L23.5 21.1944L23.5 19.1759L22.5 19.1759ZM22.5 23.213L22.5 25.2315L23.5 25.2315L23.5 23.213L22.5 23.213ZM22.5 27.25L22.5 29.2685L23.5 29.2685L23.5 27.25L22.5 27.25ZM22.5 31.287L22.5 33.3056L23.5 33.3056L23.5 31.287L22.5 31.287ZM22.5 35.3241L22.5 37.3426L23.5 37.3426L23.5 35.3241L22.5 35.3241ZM22.5 39.3611L22.5 41.3796L23.5 41.3796L23.5 39.3611L22.5 39.3611ZM22.5 43.3981L22.5 45.4167L23.5 45.4167L23.5 43.3981L22.5 43.3981ZM22.5 47.4352L22.5 49.4537L23.5 49.4537L23.5 47.4352L22.5 47.4352ZM22.5 51.4722L22.5 53.4907L23.5 53.4907L23.5 51.4722L22.5 51.4722ZM22.5 55.5092L22.5 57.5278L23.5 57.5278L23.5 55.5092L22.5 55.5092ZM22.5 59.5463L22.5 61.5648L23.5 61.5648L23.5 59.5463L22.5 59.5463ZM22.5 63.5833L22.5 65.6018L23.5 65.6018L23.5 63.5833L22.5 63.5833ZM22.5 67.6203L22.5 69.6389L23.5 69.6389L23.5 67.6203L22.5 67.6203ZM22.5 71.6574L22.5 73.6759L23.5 73.6759L23.5 71.6574L22.5 71.6574ZM22.5 75.6944L22.5 77.7129L23.5 77.7129L23.5 75.6944L22.5 75.6944ZM22.5 79.7314L22.5 81.75L23.5 81.75L23.5 79.7314L22.5 79.7314ZM22.5 83.7685L22.5 85.787L23.5 85.787L23.5 83.7685L22.5 83.7685ZM22.5 87.8055L22.5 89.824L23.5 89.824L23.5 87.8055L22.5 87.8055ZM22.5 91.8425L22.5 93.8611L23.5 93.8611L23.5 91.8425L22.5 91.8425ZM22.5 95.8796L22.5 97.8981L23.5 97.8981L23.5 95.8796L22.5 95.8796ZM22.5 99.9166L22.5 101.935L23.5 101.935L23.5 99.9166L22.5 99.9166ZM22.5 103.954L22.5 105.972L23.5 105.972L23.5 103.954L22.5 103.954ZM22.5 107.991L22.5 109L23.5 109L23.5 107.991L22.5 107.991ZM23.5 2.18557e-08C23.5 -0.276142 23.2761 -0.5 23 -0.5C22.7239 -0.5 22.5 -0.276142 22.5 -2.18557e-08L23.5 2.18557e-08ZM23 106.333C21.5272 106.333 20.3333 107.527 20.3333 109C20.3333 110.473 21.5272 111.667 23 111.667C24.4728 111.667 25.6667 110.473 25.6667 109C25.6667 107.527 24.4728 106.333 23 106.333ZM22.5 -2.18557e-08L22.5 1.00926L23.5 1.00926L23.5 2.18557e-08L22.5 -2.18557e-08ZM22.5 3.02778L22.5 5.0463L23.5 5.0463L23.5 3.02778L22.5 3.02778ZM22.5 7.06481L22.5 9.08333L23.5 9.08333L23.5 7.06481L22.5 7.06481ZM22.5 11.1019L22.5 13.1204L23.5 13.1204L23.5 11.1019L22.5 11.1019ZM22.5 15.1389L22.5 17.1574L23.5 17.1574L23.5 15.1389L22.5 15.1389ZM22.5 19.1759L22.5 21.1944L23.5 21.1944L23.5 19.1759L22.5 19.1759ZM22.5 23.213L22.5 25.2315L23.5 25.2315L23.5 23.213L22.5 23.213ZM22.5 27.25L22.5 29.2685L23.5 29.2685L23.5 27.25L22.5 27.25ZM22.5 31.287L22.5 33.3056L23.5 33.3056L23.5 31.287L22.5 31.287ZM22.5 35.3241L22.5 37.3426L23.5 37.3426L23.5 35.3241L22.5 35.3241ZM22.5 39.3611L22.5 41.3796L23.5 41.3796L23.5 39.3611L22.5 39.3611ZM22.5 43.3981L22.5 45.4167L23.5 45.4167L23.5 43.3981L22.5 43.3981ZM22.5 47.4352L22.5 49.4537L23.5 49.4537L23.5 47.4352L22.5 47.4352ZM22.5 51.4722L22.5 53.4907L23.5 53.4907L23.5 51.4722L22.5 51.4722ZM22.5 55.5092L22.5 57.5278L23.5 57.5278L23.5 55.5092L22.5 55.5092ZM22.5 59.5463L22.5 61.5648L23.5 61.5648L23.5 59.5463L22.5 59.5463ZM22.5 63.5833L22.5 65.6018L23.5 65.6018L23.5 63.5833L22.5 63.5833ZM22.5 67.6203L22.5 69.6389L23.5 69.6389L23.5 67.6203L22.5 67.6203ZM22.5 71.6574L22.5 73.6759L23.5 73.6759L23.5 71.6574L22.5 71.6574ZM22.5 75.6944L22.5 77.7129L23.5 77.7129L23.5 75.6944L22.5 75.6944ZM22.5 79.7314L22.5 81.75L23.5 81.75L23.5 79.7314L22.5 79.7314ZM22.5 83.7685L22.5 85.787L23.5 85.787L23.5 83.7685L22.5 83.7685ZM22.5 87.8055L22.5 89.824L23.5 89.824L23.5 87.8055L22.5 87.8055ZM22.5 91.8425L22.5 93.8611L23.5 93.8611L23.5 91.8425L22.5 91.8425ZM22.5 95.8796L22.5 97.8981L23.5 97.8981L23.5 95.8796L22.5 95.8796ZM22.5 99.9166L22.5 101.935L23.5 101.935L23.5 99.9166L22.5 99.9166ZM22.5 103.954L22.5 105.972L23.5 105.972L23.5 103.954L22.5 103.954ZM22.5 107.991L22.5 109L23.5 109L23.5 107.991L22.5 107.991Z" fill="#CEF4D4"/>
<path d="M33.5 2.18557e-08C33.5 -0.276142 33.2761 -0.5 33 -0.5C32.7239 -0.5 32.5 -0.276142 32.5 -2.18557e-08L33.5 2.18557e-08ZM33 82.3333C31.5272 82.3333 30.3333 83.5272 30.3333 85C30.3333 86.4728 31.5272 87.6667 33 87.6667C34.4728 87.6667 35.6667 86.4728 35.6667 85C35.6667 83.5272 34.4728 82.3333 33 82.3333ZM32.5 -2.18557e-08L32.5 1.0119L33.5 1.0119L33.5 2.18557e-08L32.5 -2.18557e-08ZM32.5 3.03571L32.5 5.05952L33.5 5.05952L33.5 3.03571L32.5 3.03571ZM32.5 7.08333L32.5 9.10714L33.5 9.10714L33.5 7.08333L32.5 7.08333ZM32.5 11.131L32.5 13.1548L33.5 13.1548L33.5 11.131L32.5 11.131ZM32.5 15.1786L32.5 17.2024L33.5 17.2024L33.5 15.1786L32.5 15.1786ZM32.5 19.2262L32.5 21.25L33.5 21.25L33.5 19.2262L32.5 19.2262ZM32.5 23.2738L32.5 25.2976L33.5 25.2976L33.5 23.2738L32.5 23.2738ZM32.5 27.3214L32.5 29.3452L33.5 29.3452L33.5 27.3214L32.5 27.3214ZM32.5 31.369L32.5 33.3929L33.5 33.3929L33.5 31.369L32.5 31.369ZM32.5 35.4167L32.5 37.4405L33.5 37.4405L33.5 35.4167L32.5 35.4167ZM32.5 39.4643L32.5 41.4881L33.5 41.4881L33.5 39.4643L32.5 39.4643ZM32.5 43.5119L32.5 45.5357L33.5 45.5357L33.5 43.5119L32.5 43.5119ZM32.5 47.5595L32.5 49.5833L33.5 49.5833L33.5 47.5595L32.5 47.5595ZM32.5 51.6072L32.5 53.631L33.5 53.631L33.5 51.6072L32.5 51.6072ZM32.5 55.6548L32.5 57.6786L33.5 57.6786L33.5 55.6548L32.5 55.6548ZM32.5 59.7024L32.5 61.7262L33.5 61.7262L33.5 59.7024L32.5 59.7024ZM32.5 63.75L32.5 65.7738L33.5 65.7738L33.5 63.75L32.5 63.75ZM32.5 67.7976L32.5 69.8215L33.5 69.8215L33.5 67.7976L32.5 67.7976ZM32.5 71.8453L32.5 73.8691L33.5 73.8691L33.5 71.8453L32.5 71.8453ZM32.5 75.8929L32.5 77.9167L33.5 77.9167L33.5 75.8929L32.5 75.8929ZM32.5 79.9405L32.5 81.9643L33.5 81.9643L33.5 79.9405L32.5 79.9405ZM32.5 83.9881L32.5 85L33.5 85L33.5 83.9881L32.5 83.9881ZM33.5 2.18557e-08C33.5 -0.276142 33.2761 -0.5 33 -0.5C32.7239 -0.5 32.5 -0.276142 32.5 -2.18557e-08L33.5 2.18557e-08ZM33 82.3333C31.5272 82.3333 30.3333 83.5272 30.3333 85C30.3333 86.4728 31.5272 87.6667 33 87.6667C34.4728 87.6667 35.6667 86.4728 35.6667 85C35.6667 83.5272 34.4728 82.3333 33 82.3333ZM32.5 -2.18557e-08L32.5 1.0119L33.5 1.0119L33.5 2.18557e-08L32.5 -2.18557e-08ZM32.5 3.03571L32.5 5.05952L33.5 5.05952L33.5 3.03571L32.5 3.03571ZM32.5 7.08333L32.5 9.10714L33.5 9.10714L33.5 7.08333L32.5 7.08333ZM32.5 11.131L32.5 13.1548L33.5 13.1548L33.5 11.131L32.5 11.131ZM32.5 15.1786L32.5 17.2024L33.5 17.2024L33.5 15.1786L32.5 15.1786ZM32.5 19.2262L32.5 21.25L33.5 21.25L33.5 19.2262L32.5 19.2262ZM32.5 23.2738L32.5 25.2976L33.5 25.2976L33.5 23.2738L32.5 23.2738ZM32.5 27.3214L32.5 29.3452L33.5 29.3452L33.5 27.3214L32.5 27.3214ZM32.5 31.369L32.5 33.3929L33.5 33.3929L33.5 31.369L32.5 31.369ZM32.5 35.4167L32.5 37.4405L33.5 37.4405L33.5 35.4167L32.5 35.4167ZM32.5 39.4643L32.5 41.4881L33.5 41.4881L33.5 39.4643L32.5 39.4643ZM32.5 43.5119L32.5 45.5357L33.5 45.5357L33.5 43.5119L32.5 43.5119ZM32.5 47.5595L32.5 49.5833L33.5 49.5833L33.5 47.5595L32.5 47.5595ZM32.5 51.6072L32.5 53.631L33.5 53.631L33.5 51.6072L32.5 51.6072ZM32.5 55.6548L32.5 57.6786L33.5 57.6786L33.5 55.6548L32.5 55.6548ZM32.5 59.7024L32.5 61.7262L33.5 61.7262L33.5 59.7024L32.5 59.7024ZM32.5 63.75L32.5 65.7738L33.5 65.7738L33.5 63.75L32.5 63.75ZM32.5 67.7976L32.5 69.8215L33.5 69.8215L33.5 67.7976L32.5 67.7976ZM32.5 71.8453L32.5 73.8691L33.5 73.8691L33.5 71.8453L32.5 71.8453ZM32.5 75.8929L32.5 77.9167L33.5 77.9167L33.5 75.8929L32.5 75.8929ZM32.5 79.9405L32.5 81.9643L33.5 81.9643L33.5 79.9405L32.5 79.9405ZM32.5 83.9881L32.5 85L33.5 85L33.5 83.9881L32.5 83.9881Z" fill="#CEF4D4"/>
</svg>
