<svg width="24" height="24" viewBox="0 0 24 24" fill="none" xmlns="http://www.w3.org/2000/svg">
<path d="M17.75 9.00977C17.23 11.0898 15.92 12.6498 14.57 14.4998L11.97 18.0398L9 22.0398L5.5 19.4998L9.35 14.5298C7.49 11.9198 6.55 10.7598 6.19 9.08977" stroke="#676767" stroke-width="1.5" stroke-linecap="round" stroke-linejoin="round"/>
<path d="M17.75 9.01C17.0999 8.07654 16.2321 7.31558 15.2217 6.79298C14.2113 6.27039 13.0888 6.0019 11.9513 6.01077C10.8138 6.01963 9.69557 6.30558 8.69345 6.84385C7.69133 7.38213 6.83549 8.15652 6.2 9.1C6.06 8.5 6 7.82 6 7C6 3.5 8.83 2 11.98 2C15.24 2 18 3.5 18 7C18 7.73 17.91 8.4 17.75 9.01Z" stroke="#676767" stroke-width="1.5" stroke-linecap="round" stroke-linejoin="round"/>
<path d="M9.34961 14.5302L11.9896 11.2202" stroke="#676767" stroke-width="1.5" stroke-linecap="round" stroke-linejoin="round"/>
<path d="M11.9697 18.04L14.9597 22.04L18.4997 19.5L14.5697 14.5" stroke="#676767" stroke-width="1.5" stroke-linecap="round" stroke-linejoin="round"/>
<path d="M14 8C14 9 13 10 11.99 11.22C11 10 10 9 10 8C10 7.46957 10.2107 6.96086 10.5858 6.58579C10.9609 6.21071 11.4696 6 12 6C12.5304 6 13.0391 6.21071 13.4142 6.58579C13.7893 6.96086 14 7.46957 14 8Z" stroke="#676767" stroke-width="1.5" stroke-linecap="round" stroke-linejoin="round"/>
</svg>
